name Run_30002_GRF.mot
datacolumns 19
datarows 12
range 2.314 2.325
endheader
time	     ground_force_vx	     ground_force_vy	     ground_force_vz	     ground_force_px	     ground_force_py	     ground_force_pz	   l_ground_force_vx	   l_ground_force_vy	   l_ground_force_vz	   l_ground_force_px	   l_ground_force_py	   l_ground_force_pz	     ground_torque_x	     ground_torque_y	     ground_torque_z	   l_ground_torque_x	   l_ground_torque_y	   l_ground_torque_z	
2.314	          0.00000000	          0.00000000	          0.00000000	          0.00000000	          0.00000000	          0.00000000	          0.00000000	          0.00000000	          0.00000000	          0.00000000	          0.00000000	          0.00000000	          0.00000000	          0.00000000	          0.00000000	          0.00000000	          0.00000000	          0.00000000	
2.315	          0.00000000	          0.00000000	          0.00000000	          0.00000000	          0.00000000	          0.00000000	         -4.38827600	         10.87368000	          2.38676200	          1.06566300	          0.00000000	         -0.36804300	          0.00000000	          0.00000000	          0.00000000	         -0.00000000	          0.10966400	         -0.00000000	
2.316	          0.00000000	          0.00000000	          0.00000000	          0.00000000	          0.00000000	          0.00000000	         -4.87358800	         12.95217000	          2.59453400	          1.06394200	          0.00000000	         -0.36996100	          0.00000000	          0.00000000	          0.00000000	          0.00000000	         -0.05490900	          0.00000000	
2.317	          0.00000000	          0.00000000	          0.00000000	          0.00000000	          0.00000000	          0.00000000	         -5.40110000	         15.37193100	          2.82327700	          1.06241600	          0.00000000	         -0.37155000	          0.00000000	          0.00000000	          0.00000000	          0.00000000	         -0.22839300	          0.00000000	
2.318	          0.00000000	          0.00000000	          0.00000000	          0.00000000	          0.00000000	          0.00000000	         -5.97265500	         18.17581400	          3.07513000	          1.06106300	          0.00000000	         -0.37286700	          0.00000000	          0.00000000	          0.00000000	          0.00000000	         -0.41054300	          0.00000000	
2.319	          0.00000000	          0.00000000	          0.00000000	          0.00000000	          0.00000000	          0.00000000	         -6.58971500	         21.41006100	          3.35235200	          1.05986300	          0.00000000	         -0.37395900	          0.00000000	          0.00000000	          0.00000000	          0.00000000	         -0.60107100	          0.00000000	
2.32	          0.00000000	          0.00000000	          0.00000000	          0.00000000	          0.00000000	          0.00000000	         -7.25323000	         25.12424300	          3.65730800	          1.05879800	          0.00000000	         -0.37486200	          0.00000000	          0.00000000	          0.00000000	          0.00000000	         -0.79965000	          0.00000000	
2.321	          0.00000000	          0.00000000	          0.00000000	          0.00000000	          0.00000000	          0.00000000	         -7.96349400	         29.37115900	          3.99245200	          1.05785300	          0.00000000	         -0.37560400	          0.00000000	          0.00000000	          0.00000000	          0.00000000	         -1.00590600	          0.00000000	
2.322	          0.00000000	          0.00000000	          0.00000000	          0.00000000	          0.00000000	          0.00000000	         -8.72000600	         34.20664600	          4.36029600	          1.05701300	          0.00000000	         -0.37621000	          0.00000000	          0.00000000	          0.00000000	          0.00000000	         -1.21942900	          0.00000000	
2.323	          0.00000000	          0.00000000	          0.00000000	          0.00000000	          0.00000000	          0.00000000	         -9.52132600	         39.68930800	          4.76338600	          1.05626200	          0.00000000	         -0.37669700	          0.00000000	          0.00000000	          0.00000000	          0.00000000	         -1.43976100	          0.00000000	
2.324	          0.00000000	          0.00000000	          0.00000000	          0.00000000	          0.00000000	          0.00000000	        -10.36496800	         45.88016500	          5.20426300	          1.05558900	          0.00000000	         -0.37708200	          0.00000000	          0.00000000	          0.00000000	          0.00000000	         -1.66640900	          0.00000000	
2.325	          0.00000000	          0.00000000	          0.00000000	          0.00000000	          0.00000000	          0.00000000	        -11.24731100	         52.84219400	          5.68542200	          1.05498100	          0.00000000	         -0.37737500	          0.00000000	          0.00000000	          0.00000000	          0.00000000	         -1.89883700	          0.00000000	
